<?xml version="1.0" encoding="iso-8859-1"?>
<!-- Uploaded to: SVG Repo, www.svgrepo.com, Generator: SVG Repo Mixer Tools -->
<!DOCTYPE svg PUBLIC "-//W3C//DTD SVG 1.1//EN" "http://www.w3.org/Graphics/SVG/1.1/DTD/svg11.dtd">
<svg fill="#000000" height="800px" width="800px" version="1.1" id="Capa_1" xmlns="http://www.w3.org/2000/svg" xmlns:xlink="http://www.w3.org/1999/xlink" 
	 viewBox="0 0 363.457 363.457" xml:space="preserve">
<g>
	<path d="M211.331,190.817c-1.885-1.885-4.396-2.922-7.071-2.922c-2.675,0-5.186,1.038-7.07,2.922l-32.129,32.129l-24.403-24.403
		l32.129-32.129c3.897-3.899,3.897-10.243-0.001-14.142l-11.125-11.125c-1.885-1.885-4.396-2.922-7.071-2.922
		c-2.675,0-5.187,1.038-7.07,2.923l-32.128,32.128l-18.256-18.256c-1.885-1.885-4.396-2.922-7.071-2.922
		c-2.675,0-5.186,1.038-7.07,2.922L66.95,171.062c-3.899,3.899-3.899,10.243,0,14.143l3.802,3.802
		c-1.596,1.086-3.103,2.325-4.496,3.718l-46.679,46.679c-5.836,5.835-9.049,13.62-9.049,21.92c0,8.301,3.214,16.086,9.049,21.92
		l17.943,17.943L5.126,333.582c-6.835,6.835-6.835,17.915,0,24.749c3.417,3.417,7.896,5.125,12.374,5.125s8.957-1.708,12.374-5.125
		l32.395-32.395l18.091,18.091c5.834,5.835,13.619,9.048,21.92,9.048s16.086-3.213,21.92-9.048l46.679-46.679
		c1.394-1.393,2.633-2.901,3.719-4.497l3.802,3.802c1.885,1.885,4.396,2.923,7.07,2.923c2.675,0,5.186-1.038,7.072-2.923
		l16.04-16.042c1.887-1.885,2.925-4.396,2.925-7.072c0-2.676-1.038-5.187-2.924-7.071l-18.255-18.255l32.129-32.129
		c3.898-3.899,3.898-10.244-0.001-14.142L211.331,190.817z"/>
	<path d="M358.33,5.126c-6.834-6.834-17.914-6.834-24.748,0l-32.686,32.686l-17.944-17.944c-5.834-5.835-13.619-9.048-21.92-9.048
		c-8.301,0-16.086,3.213-21.92,9.048l-46.679,46.679c-1.393,1.393-2.632,2.9-3.719,4.497l-3.802-3.802
		c-1.885-1.885-4.396-2.923-7.071-2.923c-2.675,0-5.187,1.038-7.071,2.923l-16.042,16.042c-1.886,1.885-2.924,4.396-2.924,7.072
		c0,2.675,1.038,5.187,2.924,7.071l111.447,111.448c1.885,1.885,4.396,2.923,7.071,2.923c2.676,0,5.186-1.038,7.071-2.923
		l16.043-16.043c3.899-3.899,3.899-10.243,0-14.142l-3.801-3.801c1.596-1.086,3.103-2.325,4.496-3.719l46.679-46.679
		c5.835-5.834,9.049-13.62,9.049-21.92s-3.213-16.086-9.049-21.92l-18.09-18.09l32.686-32.686
		C365.165,23.04,365.165,11.96,358.33,5.126z"/>
</g>
</svg>