<?xml version="1.0" encoding="utf-8"?><!-- Uploaded to: SVG Repo, www.svgrepo.com, Generator: SVG Repo Mixer Tools -->
<svg width="800px" height="800px" viewBox="0 -5.72 50.017 50.017" xmlns="http://www.w3.org/2000/svg">
  <path id="list" d="M616.819,256.412a64.756,64.756,0,0,1-12.46-1.242,13.333,13.333,0,0,1-4.369-2.242,1.558,1.558,0,0,1-.479-.849.9.9,0,0,1,.3-.751c.758-.758,3.546-1.278,4.123-1.3,8.546-.047,17.233-.048,25.778,0,.577.025,3.365.545,4.123,1.3a.9.9,0,0,1,.3.75,1.547,1.547,0,0,1-.479.849,13.307,13.307,0,0,1-4.369,2.242,64.762,64.762,0,0,1-12.434,1.243ZM584.99,251.52a3.41,3.41,0,1,1,3.41,3.38A3.4,3.4,0,0,1,584.99,251.52Zm0-14.02a3.41,3.41,0,1,1,3.41,3.38A3.4,3.4,0,0,1,584.99,237.5Zm18.509,2.2c-.6-.07-3.559-.9-4.461-1.773a.988.988,0,0,1,0-1.6c.9-.877,3.864-1.7,4.461-1.773a139.234,139.234,0,0,1,26.639,0c.6.07,3.558.9,4.461,1.773a.988.988,0,0,1,0,1.6c-.9.877-3.864,1.7-4.461,1.772q-6.671.638-13.327.638T603.5,239.7ZM584.99,221.97a3.41,3.41,0,1,1,3.41,3.38A3.395,3.395,0,0,1,584.99,221.97Zm18.941,2.255c-.577-.025-3.365-.545-4.123-1.3a.9.9,0,0,1-.3-.751,1.559,1.559,0,0,1,.479-.849,13.325,13.325,0,0,1,4.369-2.242,62.987,62.987,0,0,1,24.916,0,13.308,13.308,0,0,1,4.369,2.242,1.559,1.559,0,0,1,.479.849.9.9,0,0,1-.3.75c-.758.759-3.545,1.278-4.122,1.3-4.272.023-8.58.034-12.888.034S608.2,224.247,603.932,224.224Z" transform="translate(-584.99 -217.836)" fill="#2d5be2"/>
</svg>