<?xml version="1.0" encoding="utf-8"?><!-- Uploaded to: SVG Repo, www.svgrepo.com, Generator: SVG Repo Mixer Tools -->
<svg width="800px" height="800px" viewBox="0 0 32 32" xmlns="http://www.w3.org/2000/svg"><path d="m16 0c8.836556 0 16 7.163444 16 16s-7.163444 16-16 16-16-7.163444-16-16 7.163444-16 16-16zm6.4350288 11.7071068c-.3905242-.3905243-1.0236892-.3905243-1.4142135 0l-6.3646682 6.3632539-3.5348268-3.5348268c-.3905242-.3905243-1.0236892-.3905243-1.41421352 0-.39052429.3905243-.39052429 1.0236893 0 1.4142136l4.24264072 4.2426407c.3905243.3905242 1.0236892.3905242 1.4142135 0 .0040531-.0040531.0080641-.0081323.012033-.0122371l7.0590348-7.0588308c.3905243-.3905242.3905243-1.0236892 0-1.4142135z" fill="#202327" fill-rule="evenodd"/></svg>