<!DOCTYPE svg PUBLIC "-//W3C//DTD SVG 1.1//EN" "http://www.w3.org/Graphics/SVG/1.1/DTD/svg11.dtd">
<!-- Uploaded to: SVG Repo, www.svgrepo.com, Transformed by: SVG Repo Mixer Tools -->
<svg fill="#787878" height="800px" width="800px" version="1.1" id="Capa_1" xmlns="http://www.w3.org/2000/svg" xmlns:xlink="http://www.w3.org/1999/xlink" viewBox="0 0 612 612" xml:space="preserve" stroke="#787878">
<g id="SVGRepo_bgCarrier" stroke-width="0"/>
<g id="SVGRepo_tracerCarrier" stroke-linecap="round" stroke-linejoin="round"/>
<g id="SVGRepo_iconCarrier"> <g> <g> <g> <path d="M577.662,0h-319.77c-4.974,0-9.743,1.975-13.259,5.491L21.08,229.046c-3.516,3.516-5.493,8.286-5.493,13.257v350.945 c0,10.355,8.396,18.751,18.751,18.751h543.324c10.355,0,18.751-8.396,18.751-18.751V18.751C596.413,8.393,588.017,0,577.662,0z M239.141,64.021v159.532H79.608L239.141,64.021z M558.911,574.497H53.089V261.055h204.803c10.355,0,18.751-8.396,18.751-18.751 V37.502h282.267V574.497L558.911,574.497z"/> </g> </g> </g> </g>
</svg>