<?xml version="1.0" encoding="utf-8"?>

<!DOCTYPE svg PUBLIC "-//W3C//DTD SVG 1.1//EN" "http://www.w3.org/Graphics/SVG/1.1/DTD/svg11.dtd">
<!-- Uploaded to: SVG Repo, www.svgrepo.com, Generator: SVG Repo Mixer Tools -->
<svg version="1.1" id="_x32_" xmlns="http://www.w3.org/2000/svg" xmlns:xlink="http://www.w3.org/1999/xlink" 
	 viewBox="0 0 512 512"  xml:space="preserve">
<style type="text/css">
	.st0{fill:#000000;}
</style>
<g>
	<rect x="141.31" class="st0" width="32.772" height="71.684"/>
	<rect x="206.853" class="st0" width="32.762" height="71.684"/>
	<rect x="272.386" class="st0" width="32.762" height="71.684"/>
	<rect x="337.919" class="st0" width="32.772" height="71.684"/>
	<rect x="141.31" y="440.324" class="st0" width="32.772" height="71.676"/>
	<rect x="206.853" y="440.324" class="st0" width="32.762" height="71.676"/>
	<rect x="272.386" y="440.324" class="st0" width="32.762" height="71.676"/>
	<rect x="337.919" y="440.324" class="st0" width="32.772" height="71.676"/>
	<rect x="440.324" y="141.309" class="st0" width="71.676" height="32.772"/>
	<rect x="440.324" y="206.853" class="st0" width="71.676" height="32.762"/>
	<rect x="440.324" y="272.385" class="st0" width="71.676" height="32.762"/>
	<rect x="440.324" y="337.919" class="st0" width="71.676" height="32.772"/>
	<rect y="141.309" class="st0" width="71.685" height="32.772"/>
	<rect y="206.853" class="st0" width="71.685" height="32.762"/>
	<rect y="272.385" class="st0" width="71.685" height="32.762"/>
	<rect y="337.919" class="st0" width="71.685" height="32.772"/>
	<path class="st0" d="M92.162,419.848h327.686V92.162H92.162V419.848z M367.361,130.56c8.48,0,15.366,6.876,15.366,15.366
		c0,8.478-6.886,15.355-15.366,15.355c-8.478,0-15.355-6.877-15.355-15.355C352.006,137.437,358.883,130.56,367.361,130.56z
		 M367.361,353.284c8.48,0,15.366,6.877,15.366,15.366c0,8.478-6.886,15.355-15.366,15.355c-8.478,0-15.355-6.877-15.355-15.355
		C352.006,360.16,358.883,353.284,367.361,353.284z M144.638,130.56c8.489,0,15.366,6.876,15.366,15.366
		c0,8.47-6.877,15.355-15.366,15.355c-8.478,0-15.355-6.886-15.355-15.355C129.283,137.437,136.16,130.56,144.638,130.56z
		 M144.638,353.284c8.489,0,15.366,6.877,15.366,15.366c0,8.469-6.877,15.355-15.366,15.355c-8.478,0-15.355-6.886-15.355-15.355
		C129.283,360.16,136.16,353.284,144.638,353.284z"/>
</g>
</svg>