<?xml version="1.0" encoding="iso-8859-1"?>
<!-- Uploaded to: SVG Repo, www.svgrepo.com, Generator: SVG Repo Mixer Tools -->
<svg height="800px" width="800px" version="1.1" id="Layer_1" xmlns="http://www.w3.org/2000/svg" xmlns:xlink="http://www.w3.org/1999/xlink" 
	 viewBox="0 0 296.842 296.842" xml:space="preserve">
<g>
	<path style="fill:#868686;" d="M95.846,134.179c0-36.269,26.493-50.286,52.66-66.075c26.359-15.923,44.579-31.453,44.484-68.037
		L210.57,0c0.153,43.431-22.845,62.474-50.181,78.981c-24.75,14.946-47.222,25.727-47.203,55.188h-17.34L95.846,134.179
		L95.846,134.179z"/>
	<path style="fill:#E4E7E7;" d="M19.163,134.074h258.515c10.57,0,19.149,8.579,19.149,19.149v124.47
		c0,10.57-8.579,19.149-19.149,19.149H19.163c-10.57,0-19.149-8.579-19.149-19.149v-124.47
		C0.013,142.643,8.592,134.074,19.163,134.074z"/>
	<path style="fill:#FFFFFF;" d="M105.334,162.797H76.61v28.724h28.724V162.797z M105.334,201.096H76.61v28.724h28.724V201.096z
		 M143.633,201.096h-28.724v28.724h28.724V201.096z M181.932,201.096h-28.724v28.724h28.724V201.096z M181.932,162.797h-28.724
		v28.724h28.724V162.797z M143.633,162.797h-28.724v28.724h28.724V162.797z M38.312,191.521h28.724v-28.724H38.312V191.521z
		 M38.312,268.118h28.724v-28.724H38.312V268.118z M191.507,229.82h28.724v-28.724h-28.724V229.82z M38.312,229.82h28.724v-28.724
		H38.312V229.82z M229.804,268.118h28.724v-67.022h-28.724V268.118z M191.507,191.521h28.724v-28.724h-28.724V191.521z
		 M229.804,162.797v28.724h28.724v-28.724H229.804z M76.61,268.118H220.23v-28.724H76.61V268.118z"/>
</g>
</svg>