<?xml version="1.0" encoding="UTF-8" standalone="no"?>
<!-- Created with Inkscape (http://www.inkscape.org/) -->

<svg
   width="100"
   height="24"
   viewBox="0 0 29.58993 7.1015833"
   version="1.1"
   id="svg1"
   inkscape:version="1.4 (e7c3feb1, 2024-10-09)"
   sodipodi:docname="arch4j-title.svg"
   xmlns:inkscape="http://www.inkscape.org/namespaces/inkscape"
   xmlns:sodipodi="http://sodipodi.sourceforge.net/DTD/sodipodi-0.dtd"
   xmlns="http://www.w3.org/2000/svg"
   xmlns:svg="http://www.w3.org/2000/svg">
  <sodipodi:namedview
     id="namedview1"
     pagecolor="#ffffff"
     bordercolor="#000000"
     borderopacity="0.25"
     inkscape:showpageshadow="2"
     inkscape:pageopacity="0.0"
     inkscape:pagecheckerboard="false"
     inkscape:deskcolor="#d1d1d1"
     inkscape:document-units="px"
     inkscape:zoom="5.6568542"
     inkscape:cx="56.21499"
     inkscape:cy="6.8942912"
     inkscape:window-width="1680"
     inkscape:window-height="997"
     inkscape:window-x="0"
     inkscape:window-y="25"
     inkscape:window-maximized="0"
     inkscape:current-layer="layer1" />
  <defs
     id="defs1" />
  <g
     inkscape:label="Layer 1"
     inkscape:groupmode="layer"
     id="layer1"
     transform="translate(-2.2396488,-3.4687971)">
    <path
       d="m 3.4232464,6.2516174 v 3.205575 h 1.28223 v -1.28223 h 1.28223 v 1.28223 h 1.28223 v -3.205575 z m 1.28223,1.28223 v -0.641115 h 1.28223 v 0.641115 z m 3.2055749,-1.28223 v 3.205575 h 1.28223 v -1.28223 h 0.641115 v 1.28223 h 1.9233447 v -0.641115 h -0.641115 v -0.641115 h 0.641115 v -1.923345 z m 1.28223,1.28223 v -0.641115 h 1.2822297 v 0.641115 z m 3.2055747,-1.28223 v 3.205575 h 3.84669 v -0.641115 h -2.56446 v -1.923345 h 2.56446 v -0.641115 z m 7.052266,0 v 1.28223 h -1.28223 v -1.28223 h -1.28223 v 3.205575 h 1.28223 v -1.28223 h 1.28223 v 1.28223 h 1.28223 v -3.205575 z m 5.128919,0 h -1.28223 v 1.923345 h -0.641115 v -1.923345 h -1.28223 v 2.56446 h 1.923345 v 0.641115 h 1.28223 v -0.641115 h 0.641115 v -0.641115 h -0.641115 z m 2.564459,0 v 0.641115 h 1.28223 v 1.923345 H 27.1445 v -0.641115 h -1.28223 v 1.28223 h 3.84669 v -3.205575 z"
       id="text1"
       style="font-size:5.12892px;font-family:'04b_09';-inkscape-font-specification:'04b_09, Normal';stroke-width:0.264583"
       aria-label="ARCH4J" />
    <path
       d="M 3.5076537,4.7915985 V 5.7779298 H 4.6912512 V 4.7915985 Z m 0.3945325,0.789065 V 4.9888648 H 4.2967187 V 5.5806635 Z M 4.8885175,4.7915985 V 5.7779298 H 6.072115 V 4.7915985 Z M 5.28305,5.5806635 V 4.9888648 H 5.6775825 V 5.5806635 Z M 6.2693813,4.7915985 V 5.7779298 H 6.6639138 V 5.3833973 h 0.789065 V 4.7915985 Z M 6.6639138,5.186131 V 4.9888648 H 7.0584463 V 5.186131 Z M 7.6502452,4.7915985 v 0.5917988 h 0.789065 V 5.5806635 H 7.6502452 V 5.7779298 H 8.8338427 V 5.186131 H 8.0447777 V 4.9888648 h 0.789065 V 4.7915985 Z m 1.3808637,0 V 5.7779298 H 10.214706 V 5.5806635 H 9.4256414 V 4.9888648 H 10.214706 V 4.7915985 Z m 1.3808641,0 v 0.9863313 h 0.394532 V 5.3833973 h 0.197266 V 5.7779298 H 11.59557 V 5.5806635 H 11.398304 V 5.3833973 H 11.59557 V 4.7915985 Z M 10.806505,5.186131 V 4.9888648 h 0.394533 V 5.186131 Z m 0.986332,-0.3945325 v 0.9863313 h 0.394532 V 5.3833973 h 0.394533 v 0.3945325 h 0.394532 V 4.7915985 Z M 12.187369,5.186131 V 4.9888648 h 0.394533 V 5.186131 Z M 13.1737,4.7915985 v 0.9863313 h 0.394532 V 5.3833973 h 0.789065 V 5.186131 H 13.568232 V 4.9888648 h 0.789065 V 4.7915985 Z m 1.380864,0 v 0.1972663 h 0.394533 v 0.789065 h 0.394532 v -0.789065 h 0.394533 V 4.7915985 Z m 1.380864,0.5917988 v 0.3945325 h 0.394533 V 5.3833973 Z m 0.591799,-0.5917988 v 0.9863313 h 1.183597 V 4.7915985 Z m 0.394532,0.789065 V 4.9888648 h 0.394533 v 0.5917987 z m 0.986331,-0.789065 v 0.9863313 h 0.394533 V 5.3833973 h 0.197266 v 0.3945325 h 0.591799 V 5.5806635 H 18.894421 V 5.3833973 h 0.197267 V 4.7915985 Z M 18.302623,5.186131 V 4.9888648 h 0.394532 V 5.186131 Z m 1.380864,-0.1972662 h 0.789065 V 4.7915985 h -1.183598 v 0.9863313 h 1.183598 V 5.186131 h -0.591799 v 0.1972663 h 0.197266 v 0.1972662 h -0.394532 z m 2.169929,0.789065 V 5.5806635 h -1.183598 v 0.1972663 z m 1.380863,0 V 5.5806635 h -1.183597 v 0.1972663 z m 1.380863,0 V 5.5806635 h -1.183597 v 0.1972663 z m 1.380865,0 V 5.5806635 H 24.81241 v 0.1972663 z m 1.380864,0 V 5.5806635 h -1.183598 v 0.1972663 z m 1.380863,0 V 5.5806635 h -1.183598 v 0.1972663 z m 1.380865,0 V 5.5806635 h -1.183598 v 0.1972663 z"
       id="text2"
       style="font-size:1.57813px;font-family:'04b_09';-inkscape-font-specification:'04b_09, Normal';stroke-width:0.264583"
       aria-label="OOPSCRAFT.ORG_______" />
  </g>
</svg>
