<?xml version="1.0" ?><!-- Uploaded to: SVG Repo, www.svgrepo.com, Generator: SVG Repo Mixer Tools -->
<svg fill="#000000" width="800px" height="800px" viewBox="0 0 100 100" id="Слой_1" version="1.1" xml:space="preserve" xmlns="http://www.w3.org/2000/svg" xmlns:xlink="http://www.w3.org/1999/xlink"><path d="M69.34,16.289c-5.24-4.94-13.72-9.25-23.69-9.25c-4.7,0-9.73,0.96-14.91,3.27c-0.06,0.02-3.25,1.48-6.82,4.53  c-3.58,3.05-7.54,7.71-9.16,14.16c-2.38,9.41,1.38,17.74,3.18,21.74c1.79,3.97,3.57,6.28,5.46,8.74c2.1,2.73,4.27,5.55,6.78,10.89  c1.29,2.73,2.04,4.73,2.7,6.49c0.89,2.37,1.54,4.08,2.98,6.19c5.22,7.64,14.84,11.28,25.1,9.51c17.28-2.98,22.77-21.04,23.69-24.63  C89.05,50.859,82.47,28.659,69.34,16.289z M34.03,28.719c-0.27-0.07-0.43-0.34-0.37-0.61c0.28-1.17-0.37-2.55-1.46-3.06  c-0.25-0.12-0.35-0.42-0.24-0.67c0.12-0.25,0.42-0.36,0.67-0.24c1.52,0.72,2.4,2.57,2.01,4.21c-0.06,0.23-0.26,0.38-0.49,0.38  C34.11,28.729,34.07,28.729,34.03,28.719z M37.66,56.339c-0.03,0.25-0.25,0.43-0.49,0.43c-0.02,0-0.05-0.01-0.08-0.01  c-0.27-0.04-0.46-0.3-0.41-0.57c0.22-1.41-0.64-2.91-1.95-3.43c-0.26-0.1-0.39-0.39-0.29-0.65c0.1-0.25,0.4-0.38,0.65-0.28  C36.82,52.509,37.95,54.489,37.66,56.339z M66.9,29.629c0-0.27,0.22-0.49,0.5-0.49c0,0,0,0,0.01,0c0.27,0.01,0.49,0.24,0.49,0.51  c-0.03,1.43,0.91,2.85,2.23,3.37c0.26,0.1,0.38,0.39,0.28,0.65c-0.08,0.2-0.27,0.32-0.46,0.32c-0.07,0-0.13-0.02-0.19-0.04  C68.04,33.269,66.86,31.499,66.9,29.629z M71.94,64.039c-1.09,0.87-1.38,2.59-0.65,3.78c0.14,0.23,0.07,0.54-0.16,0.68  c-0.09,0.06-0.18,0.08-0.27,0.08c-0.16,0-0.33-0.08-0.42-0.24c-1-1.62-0.61-3.89,0.87-5.08c0.22-0.17,0.53-0.14,0.7,0.08  C72.19,63.549,72.15,63.869,71.94,64.039z"/></svg>