<?xml version="1.0" encoding="iso-8859-1"?>
<!-- Uploaded to: SVG Repo, www.svgrepo.com, Generator: SVG Repo Mixer Tools -->
<svg version="1.1" id="Layer_1" xmlns="http://www.w3.org/2000/svg" xmlns:xlink="http://www.w3.org/1999/xlink" 
	 viewBox="0 0 512 512" xml:space="preserve">
<path style="fill:#748993;" d="M452.085,65.362L299.574,392.17h185.191V98.043C484.766,80.068,470.06,65.362,452.085,65.362z"/>
<g>
	<path style="fill:#A2B1B7;" d="M452.085,98.043V65.362H59.915c-17.974,0-32.681,14.706-32.681,32.681V392.17h424.851v-43.574
		l-21.787-125.277L452.085,98.043z"/>
	<path style="fill:#A2B1B7;" d="M471.149,381.277l-32.681,65.362h32.681c17.974,0,32.681-14.706,32.681-32.681v-32.681H471.149z"/>
</g>
<path style="fill:#C4D3D9;" d="M288.681,381.277L256,413.957l-32.681-32.681H8.17v32.681c0,17.974,14.706,32.681,32.681,32.681
	h397.617c17.974,0,32.681-14.706,32.681-32.681v-32.681H288.681z"/>
<polygon style="fill:#414D53;" points="452.085,98.043 452.085,348.596 419.404,348.596 364.936,223.319 419.404,98.043 "/>
<rect x="223.319" y="381.277" style="fill:#748993;" width="65.362" height="32.681"/>
<rect x="59.915" y="98.043" style="fill:#57676E;" width="359.489" height="250.553"/>
<path d="M59.915,231.489c-4.513,0-8.17,3.658-8.17,8.17v108.936c0,4.512,3.657,8.17,8.17,8.17h392.17c4.513,0,8.17-3.658,8.17-8.17
	V98.043c0-4.512-3.657-8.17-8.17-8.17H59.915c-4.513,0-8.17,3.658-8.17,8.17v108.936c0,4.512,3.657,8.17,8.17,8.17
	s8.17-3.658,8.17-8.17V106.213h375.83v234.213H68.085V239.66C68.085,235.147,64.428,231.489,59.915,231.489z"/>
<path d="M503.83,373.106h-10.894V98.043c0-22.526-18.325-40.851-40.851-40.851H59.915c-22.526,0-40.851,18.325-40.851,40.851
	v250.553c0,4.512,3.657,8.17,8.17,8.17s8.17-3.658,8.17-8.17V98.043c0-13.516,10.996-24.511,24.511-24.511h392.17
	c13.515,0,24.511,10.995,24.511,24.511v275.064H8.17c-4.513,0-8.17,3.658-8.17,8.17v32.681c0,22.526,18.325,40.851,40.851,40.851
	h430.298c22.526,0,40.851-18.325,40.851-40.851v-32.681C512,376.764,508.343,373.106,503.83,373.106z M231.489,389.447h49.021v16.34
	h-49.021V389.447z M495.66,413.957c0,13.516-10.996,24.511-24.511,24.511H40.851c-13.515,0-24.511-10.995-24.511-24.511v-24.511
	h198.809v24.511c0,4.512,3.657,8.17,8.17,8.17h65.362c4.513,0,8.17-3.658,8.17-8.17v-24.511H495.66V413.957z"/>
</svg>