<?xml version="1.0" encoding="UTF-8" standalone="no"?>
<!-- Created with Inkscape (http://www.inkscape.org/) -->

<svg
   width="100"
   height="24"
   viewBox="0 0 29.58993 7.1015833"
   version="1.1"
   id="svg1"
   xmlns="http://www.w3.org/2000/svg"
   xmlns:svg="http://www.w3.org/2000/svg">
  <defs
     id="defs1" />
  <g
     id="layer1"
     transform="translate(-2.2396488,-3.4687971)">
    <path
       d="m 3.4232464,6.2516174 v 3.205575 h 1.28223 v -1.28223 h 1.28223 v 1.28223 h 1.28223 v -3.205575 z m 1.28223,1.28223 v -0.641115 h 1.28223 v 0.641115 z m 3.2055749,-1.28223 v 3.205575 h 1.28223 v -1.28223 h 0.641115 v 1.28223 h 1.9233447 v -0.641115 h -0.641115 v -0.641115 h 0.641115 v -1.923345 z m 1.28223,1.28223 v -0.641115 h 1.2822297 v 0.641115 z m 3.2055747,-1.28223 v 3.205575 h 3.84669 v -0.641115 h -2.56446 v -1.923345 h 2.56446 v -0.641115 z m 7.052266,0 v 1.28223 h -1.28223 v -1.28223 h -1.28223 v 3.205575 h 1.28223 v -1.28223 h 1.28223 v 1.28223 h 1.28223 v -3.205575 z m 5.128919,0 h -1.28223 v 1.923345 h -0.641115 v -1.923345 h -1.28223 v 2.56446 h 1.923345 v 0.641115 h 1.28223 v -0.641115 h 0.641115 v -0.641115 h -0.641115 z m 2.564459,0 v 0.641115 h 1.28223 v 1.923345 H 27.1445 v -0.641115 h -1.28223 v 1.28223 h 3.84669 v -3.205575 z"
       id="text1"
       style="font-size:5.12892px;font-family:'04b_09';-inkscape-font-specification:'04b_09, Normal';stroke-width:0.264583"
       aria-label="ARCH4J" />
    <path
       d="M 3.5076537,4.7915985 V 5.7779298 H 4.6912512 V 5.5806635 H 3.9021862 V 4.9888648 h 0.789065 V 4.7915985 Z m 2.1699288,0 V 5.186131 H 5.28305 V 4.7915985 H 4.8885175 V 5.7779298 H 5.28305 V 5.3833973 H 5.6775825 V 5.7779298 H 6.072115 V 4.7915985 Z m 0.5917988,0 V 5.7779298 H 7.4529788 V 4.7915985 Z m 0.3945325,0.789065 V 4.9888648 h 0.3945325 v 0.5917987 z m 0.9863314,-0.789065 v 0.9863313 h 0.3945325 v -0.789065 h 0.1972662 v 0.789065 h 0.3945325 v -0.789065 h 0.1972663 v 0.789065 H 9.2283752 V 4.7915985 Z m 1.7753963,0 V 5.7779298 H 10.609239 V 4.7915985 Z M 9.820174,5.5806635 V 4.9888648 h 0.394533 v 0.5917987 z m 0.986331,-0.789065 v 0.9863313 h 1.183598 V 4.7915985 Z m 0.394533,0.789065 V 4.9888648 h 0.394532 v 0.5917987 z m 1.775396,-0.789065 V 4.9888648 H 12.779168 V 5.186131 H 12.581901 V 4.7915985 h -0.394532 v 0.9863313 h 0.394532 V 5.3833973 h 0.197267 v 0.1972662 h 0.197266 v 0.1972663 h 0.394532 V 5.5806635 H 13.1737 V 5.3833973 H 12.976434 V 5.186131 H 13.1737 V 4.9888648 h 0.197266 V 4.7915985 Z m 1.380864,0 v 0.789065 h -0.394532 v -0.789065 h -0.394533 v 0.9863313 h 1.183598 V 4.7915985 Z m 1.380863,0 V 5.186131 H 15.540895 V 4.9888648 H 15.343629 V 4.7915985 h -0.394533 v 0.9863313 h 0.394533 V 5.3833973 h 0.197266 v 0.1972662 h 0.197266 v 0.1972663 h 0.394533 V 4.7915985 Z m 0.591799,0.5917988 v 0.3945325 h 0.394533 V 5.3833973 Z m 0.591799,-0.5917988 v 0.9863313 h 1.183598 V 4.7915985 Z m 0.394533,0.789065 V 4.9888648 h 0.394532 v 0.5917987 z m 0.986331,-0.789065 v 0.9863313 h 0.394533 V 5.3833973 h 0.197266 v 0.3945325 h 0.591799 V 5.5806635 H 19.288955 V 5.3833973 h 0.197266 V 4.7915985 Z M 18.697156,5.186131 V 4.9888648 h 0.394532 V 5.186131 Z m 1.380863,-0.1972662 h 0.789065 V 4.7915985 h -1.183598 v 0.9863313 h 1.183598 V 5.186131 h -0.591799 v 0.1972663 h 0.197266 v 0.1972662 h -0.394532 z"
       id="text2"
       style="font-size:1.57813px;font-family:'04b_09';-inkscape-font-specification:'04b_09, Normal';stroke-width:0.264583"
       aria-label="CHOMOOKUN.ORG" />
  </g>
</svg>
