<?xml version="1.0" encoding="utf-8"?><!-- Uploaded to: SVG Repo, www.svgrepo.com, Generator: SVG Repo Mixer Tools -->
<svg version="1.1" id="Uploaded to svgrepo.com" xmlns="http://www.w3.org/2000/svg" xmlns:xlink="http://www.w3.org/1999/xlink" 
	 width="800px" height="800px" viewBox="0 0 32 32" xml:space="preserve">
<style type="text/css">
	.linesandangles_een{fill:#111918;}
</style>
<path class="linesandangles_een" d="M17,6h-2V4h2V6z M25.899,8.515L24.485,7.1l-1.414,1.414l1.414,1.414L25.899,8.515z M8.929,8.515
	L7.515,7.1L6.101,8.515l1.414,1.414L8.929,8.515z M26,26h3v2H3v-2h3v-9c0-5.523,4.556-10,10-10s10,4.477,10,10V26z M24,17
	c0-4.411-3.589-8-8-8s-8,3.589-8,8v9h16V17z M5,16H3v2h2V16z M27,16v2h2v-2H27z M10,17v7h2v-7c0-2.209,1.791-4,4-4v-2
	C12.686,11,10,13.686,10,17z"/>
</svg>