<?xml version="1.0" encoding="iso-8859-1"?>
<!-- Uploaded to: SVG Repo, www.svgrepo.com, Generator: SVG Repo Mixer Tools -->
<svg height="800px" width="800px" version="1.1" id="Layer_1" xmlns="http://www.w3.org/2000/svg" xmlns:xlink="http://www.w3.org/1999/xlink" 
	 viewBox="0 0 512 512" xml:space="preserve">
<path style="fill:#CCCCCC;" d="M255.832,32.021c123.697,0.096,223.907,100.45,223.811,224.147s-100.45,223.907-224.147,223.811
	C131.863,479.883,31.685,379.633,31.685,256C31.869,132.311,132.143,32.117,255.832,32.021 M255.832,0
	C114.443,0.096-0.096,114.779,0,256.168S114.779,512.096,256.168,512C397.485,511.904,512,397.317,512,256
	C511.952,114.571,397.261-0.048,255.832,0z"/>
<polygon style="fill:#00000A;" points="173.106,403.345 416.914,256 173.106,108.655 "/>
<g style="opacity:0.25;">
	<polygon style="fill:#FFFFFF;" points="173.106,256 416.914,256 173.106,108.655 	"/>
</g>
</svg>